<svg xmlns="http://www.w3.org/2000/svg" xmlns:xlink="http://www.w3.org/1999/xlink" viewBox="0 0 139.73 150.57"><defs><style>.cls-1,.cls-3,.cls-4,.cls-5,.cls-7,.cls-8{fill:none;}.cls-2{clip-path:url(#clip-path);}.cls-3,.cls-4,.cls-5,.cls-7,.cls-8{stroke:#1a1a1a;}.cls-3{stroke-miterlimit:10;}.cls-3,.cls-8{stroke-width:1.14px;}.cls-4,.cls-5,.cls-7,.cls-8{stroke-linecap:round;stroke-linejoin:round;}.cls-4{stroke-width:0.57px;}.cls-5{stroke-width:1.08px;}.cls-6{fill:#1a1a1a;}.cls-7{stroke-width:0.54px;}</style><clipPath id="clip-path" transform="translate(-5.14)"><rect class="cls-1" width="150" height="150"/></clipPath></defs><title>Asset 2</title><g id="Layer_2" data-name="Layer 2"><g id="OBJECTS"><g class="cls-2"><path class="cls-3" d="M100.81,35.72S104.16,85.65,74,85.65,46.22,35.72,46.22,35.72,44.76,6,75,6C103.15,6,100.81,35.72,100.81,35.72Z" transform="translate(-5.14)"/><path class="cls-3" d="M100.8,45.58s2.82-4.09,6.18-2.11,2.28,9.3,0,13-6,5.46-8,2.65" transform="translate(-5.14)"/><path class="cls-4" d="M106.61,48s-3.78-1.26-6.46,4.31" transform="translate(-5.14)"/><path class="cls-4" d="M102,49.63s4.11,2.19,1.4,5.5" transform="translate(-5.14)"/><path class="cls-3" d="M46.42,45.58s-2.82-4.09-6.18-2.11-2.28,9.3,0,13,6,5.46,8,2.65" transform="translate(-5.14)"/><path class="cls-4" d="M40.61,48s3.78-1.26,6.46,4.31" transform="translate(-5.14)"/><path class="cls-4" d="M45.23,49.63s-4.11,2.19-1.39,5.5" transform="translate(-5.14)"/><path class="cls-5" d="M72.2,44.64V55.1a2.41,2.41,0,0,0,.18.93,2.44,2.44,0,0,0,2.91,1.35l2.51-.67" transform="translate(-5.14)"/><path class="cls-6" d="M69.79,28c-.22.33-1.53,4.48-1.53,4.48H53.84l4.9-2.78a11,11,0,0,1,4-1.11Z" transform="translate(-5.14)"/><path class="cls-6" d="M78.88,28c.22.33,1.53,4.48,1.53,4.48H94.83l-4.9-2.78a11,11,0,0,0-4-1.11Z" transform="translate(-5.14)"/><circle class="cls-6" cx="57.41" cy="42.36" r="2.5"/><path class="cls-6" d="M88.37,42.36a2.5,2.5,0,1,1-2.5-2.5A2.5,2.5,0,0,1,88.37,42.36Z" transform="translate(-5.14)"/><line class="cls-4" x1="61.95" y1="44.86" x2="55.72" y2="48.97"/><line class="cls-4" x1="76.79" y1="45.32" x2="82.3" y2="49.46"/><path class="cls-5" d="M65.73,62.53a17.81,17.81,0,0,0,9.1,2.87,14.24,14.24,0,0,0,8.42-2.87" transform="translate(-5.14)"/><circle class="cls-7" cx="54.95" cy="43.01" r="10.5"/><circle class="cls-7" cx="80.73" cy="43.01" r="10.5"/><path class="cls-7" d="M70.58,43s2.49-2.32,4.79,0" transform="translate(-5.14)"/><line class="cls-7" x1="44.85" y1="45.84" x2="41.15" y2="42.93"/><line class="cls-7" x1="90.85" y1="45.84" x2="95.78" y2="41.97"/><path class="cls-6" d="M73.5,0C36.74,0,40.45,25,46,44.86c0,0,5-9.25,4-15.77C70.91,26.71,89.64,15.2,89.73,15.14c1.44,11.41,11.32,28.34,11.32,28.34C106.61,25,112.39,0,73.5,0Z" transform="translate(-5.14)"/><path class="cls-8" d="M144.29,150c0-26.13-30.22-41.42-30.22-41.42H35.93S5.71,123.87,5.71,150" transform="translate(-5.14)"/><polygon points="129.46 125.25 10.27 125.25 16.8 118.47 122.93 118.47 129.46 125.25"/><polygon points="137.98 141.17 1.5 141.17 4.67 134.38 134.77 134.38 137.98 141.17"/><path class="cls-8" d="M55.53,77V98S51,106,35.93,108.58H113s-19.33-4-20.73-10.57V77" transform="translate(-5.14)"/><path class="cls-6" d="M55.94,77.59s5.42,10.77,14.2,15.77a14.54,14.54,0,0,0,18.94-3.7c2.16-3,3.8-7.31,3.8-13.7,0,0-7,9.26-17.51,9.69S55.94,77.59,55.94,77.59Z" transform="translate(-5.14)"/></g></g></g></svg>