<?xml version="1.0" encoding="utf-8"?>
<!-- Generator: Adobe Illustrator 23.0.3, SVG Export Plug-In . SVG Version: 6.00 Build 0)  -->
<svg version="1.1" id="Layer_1" xmlns="http://www.w3.org/2000/svg" xmlns:xlink="http://www.w3.org/1999/xlink" x="0px" y="0px"
	 viewBox="0 0 146.5 146.5" style="enable-background:new 0 0 146.5 146.5;" xml:space="preserve">
<style type="text/css">
	.st0{fill:#CC0500;}
</style>
<title>Asset 7</title>
<g>
	<g id="Layer_1-2">
		<path class="st0" d="M73.3,0C32.8,0,0,32.8,0,73.3s32.8,73.3,73.3,73.3s73.3-32.8,73.3-73.3C146.5,32.8,113.7,0,73.3,0 M96.9,77
			l-34.5,23c-2,1.4-4.8,0.8-6.2-1.2c-0.5-0.7-0.8-1.6-0.8-2.5v-46c0-2.5,2-4.5,4.5-4.5c0.9,0,1.7,0.3,2.5,0.8l34.5,23
			c2,1.4,2.6,4.1,1.2,6.2C97.8,76.3,97.3,76.7,96.9,77"/>
	</g>
</g>
</svg>
