<svg xmlns="http://www.w3.org/2000/svg" viewBox="0 0 480 80"><defs><style>.cls-1{fill:#cc0500;}</style></defs><title>Asset 1</title><g id="Layer_2" data-name="Layer 2"><g id="Layer_1-2" data-name="Layer 1"><path d="M49.2,58.7l9.1,11.5A33.11,33.11,0,0,1,34.1,80C14.1,80,0,65.1,0,44.8S14.1,9.5,34.2,9.5a33.51,33.51,0,0,1,24.2,9.8L49.3,30.8A19.18,19.18,0,0,0,35.4,25C24.6,25,17,33.2,17,44.8s7.6,19.7,18.3,19.7A19.18,19.18,0,0,0,49.2,58.7Z"/><path d="M96.2,62.7l.6.4c-1.5,11.7-7.9,16.6-16.1,16.6-7.6,0-15.9-4.1-15.9-18.1V28.3H81.4V56c0,7.7,4.4,9.5,8.3,9.5A8.63,8.63,0,0,0,96.2,62.7Zm2.4-34.4h16.6V78.1H98.6Z"/><path d="M121.2,71.5l6.7-10.1a23,23,0,0,0,15.2,6.3c3.6,0,7-1.2,7-4,0-7.6-25.9.2-25.9-19.9,0-12,8.8-17.1,20.9-17.1,7.2,0,14.2,1.9,19.7,7.3l-7.9,8.9a17.45,17.45,0,0,0-11.7-4.7c-3.9,0-6.3,1.6-6.3,4.3,0,8,25.8.1,25.8,20.1,0,12.6-11.4,17-21.5,17A32.16,32.16,0,0,1,121.2,71.5Z"/><path d="M205.5,42.7H194.4V78.1H177.8V42.7h-9.2V28.3h37V42.7ZM193.8,26.3c-8.1,0-16.1-5.2-16.1-13.8V11.1h16.6V26.3Z"/><path d="M208.2,53.2c0-15.3,10.9-26.4,25.7-26.4s25.7,11.1,25.7,26.4-10.9,26.4-25.7,26.4S208.2,68.6,208.2,53.2Zm35.3,0c0-6.7-3.5-12.1-9.6-12.1s-9.6,5.4-9.6,12.1,3.5,12.1,9.6,12.1S243.5,59.9,243.5,53.2Z"/><path d="M266.8,78.1V28.3h16.6V78.1Zm50.4-33.2V78.1H300.6V50.5c0-7.7-4.4-9.6-8.3-9.6a8.63,8.63,0,0,0-6.5,2.8l-.6-.4c1.5-11.7,8.4-16.6,16.5-16.6C309.4,26.8,317.2,30.9,317.2,44.9Zm33.8,0V78.1H334.4V50.5c0-7.7-4.4-9.6-8.3-9.6a8.63,8.63,0,0,0-6.5,2.8l-.6-.4c1.5-11.7,8.4-16.6,16.5-16.6C343.2,26.8,351,30.9,351,44.9Z"/><path class="cls-1" d="M369.3,0h0a11,11,0,0,0-11,11h0a11,11,0,0,0,11,11h0a11,11,0,0,0,11-11h0A11.1,11.1,0,0,0,369.3,0Z"/><rect x="360.9" y="28.3" width="16.6" height="49.8"/><path d="M431.2,28.3v.6L410,63.8h19.1V78.2H383.6v-.6l21.2-34.9H385.7V28.3Z"/><path d="M447.2,56.8c1.3,6.3,6.5,9.7,12.5,9.7a15.7,15.7,0,0,0,10.9-4.6l8.1,9.6a27.38,27.38,0,0,1-20.1,8.2c-15.7,0-26.1-11.1-26.1-26.4s10.1-26.4,24.6-26.4c13.2,0,22.9,9.2,22.9,23.8a35,35,0,0,1-.6,6.2H447.2Zm18.9-9.2c-.9-6.2-5-8.5-9-8.5-4.8,0-8.1,3.3-9.4,8.5Z"/></g></g></svg>